<svg xmlns="http://www.w3.org/2000/svg" version="1.1" xmlns:xlink="http://www.w3.org/1999/xlink" xmlns:svgjs="http://svgjs.dev/svgjs" width="2000" height="752" viewBox="0 0 2000 752"><g transform="matrix(1,0,0,1,-1.212120827156582,-1.119224200863357)"><svg viewBox="0 0 396 149" data-background-color="#ffffff" preserveAspectRatio="xMidYMid meet" height="752" width="2000" xmlns="http://www.w3.org/2000/svg" xmlns:xlink="http://www.w3.org/1999/xlink"><g id="tight-bounds" transform="matrix(1,0,0,1,0.24000007622305475,0.22176117809659956)"><svg viewBox="0 0 395.52 148.5564776438068" height="148.5564776438068" width="395.52"><g><svg viewBox="0 0 395.52 148.5564776438068" height="148.5564776438068" width="395.52"><g transform="matrix(1,0,0,1,0,91.81386297417659)"><svg viewBox="0 0 395.52 56.742614669630214" height="56.742614669630214" width="395.52"><g id="textblocktransform"><svg viewBox="0 0 395.52 56.742614669630214" height="56.742614669630214" width="395.52" id="textblock"><g><svg viewBox="0 0 395.52 56.742614669630214" height="56.742614669630214" width="395.52"><g transform="matrix(1,0,0,1,0,0)"><svg width="395.52" viewBox="4.650000095367432 -35.5 247.4300079345703 35.5" height="56.742614669630214" data-palette-color="#c56e33"><path d="M28.4 0L4.65 0 4.65-35.5 7.2-35.5 7.2-2.3 28.4-2.3 28.4 0ZM36.25-2.3L57.35-2.3 57.35 0 33.7 0 33.7-35.5 56.9-35.5 56.9-33.2 36.25-33.2 36.25-19.25 54.3-19.25 54.3-17.05 36.25-17.05 36.25-2.3ZM79.69 0L77.14 0 77.14-35.5 91.74-35.5Q93.99-35.5 95.87-34.55 97.74-33.6 99.14-32.02 100.54-30.45 101.32-28.5 102.09-26.55 102.09-24.5L102.09-24.5Q102.09-21.65 100.82-19.13 99.54-16.6 97.32-15 95.09-13.4 92.04-13.4L92.04-13.4 79.69-13.4 79.69 0ZM79.69-33.2L79.69-15.75 91.94-15.75Q94.29-15.75 95.99-17 97.69-18.25 98.59-20.25 99.49-22.25 99.49-24.5L99.49-24.5Q99.49-26.85 98.42-28.83 97.34-30.8 95.57-32 93.79-33.2 91.64-33.2L91.64-33.2 79.69-33.2ZM110.74-2.3L131.84-2.3 131.84 0 108.19 0 108.19-35.5 131.39-35.5 131.39-33.2 110.74-33.2 110.74-19.25 128.79-19.25 128.79-17.05 110.74-17.05 110.74-2.3ZM163.59-35.5L163.59-33.2 150.59-33.2 150.59 0 148.04 0 148.04-33.2 135.04-33.2 135.04-35.5 163.59-35.5ZM161.69 0L176.79-35.5 178.99-35.5 193.99 0 191.29 0 186.34-11.7 169.39-11.7 164.44 0 161.69 0ZM169.99-13.8L185.64-13.8 177.89-32.4 169.99-13.8ZM223.13 0L199.38 0 199.38-35.5 201.93-35.5 201.93-2.3 223.13-2.3 223.13 0ZM230.98-2.3L252.08-2.3 252.08 0 228.43 0 228.43-35.5 251.63-35.5 251.63-33.2 230.98-33.2 230.98-19.25 249.03-19.25 249.03-17.05 230.98-17.05 230.98-2.3Z" opacity="1" transform="matrix(1,0,0,1,0,0)" fill="#c56e33" class="undefined-text-0" data-fill-palette-color="primary" id="text-0"></path></svg></g></svg></g></svg></g></svg></g><g transform="matrix(1,0,0,1,158.55085326328552,0)"><svg viewBox="0 0 78.41829347342895 78.41829347342896" height="78.41829347342896" width="78.41829347342895"><g><svg></svg></g><g id="icon-0"><svg viewBox="0 0 78.41829347342895 78.41829347342896" height="78.41829347342896" width="78.41829347342895"><g><path xmlns="http://www.w3.org/2000/svg" d="M23.525 78.418c-12.993 0-23.525-10.533-23.525-23.525v-31.368c0-12.993 10.533-23.525 23.525-23.525h31.368c12.993 0 23.525 10.533 23.525 23.525v31.368c0 12.993-10.533 23.525-23.525 23.525z" fill="#c56e33" fill-rule="nonzero" stroke="none" stroke-width="1" stroke-linecap="butt" stroke-linejoin="miter" stroke-miterlimit="10" stroke-dasharray="" stroke-dashoffset="0" font-family="none" font-weight="none" font-size="none" text-anchor="none" style="mix-blend-mode: normal" data-fill-palette-color="accent"></path></g><g transform="matrix(1,0,0,1,16.385659530677472,15.683658694685793)"><svg viewBox="0 0 45.646974412074 47.050976084057375" height="47.050976084057375" width="45.646974412074"><g><svg version="1.1" xmlns="http://www.w3.org/2000/svg" xmlns:xlink="http://www.w3.org/1999/xlink" x="0" y="0" viewBox="0 -1.1920928955078125e-7 97.01599884033203 100" enable-background="new 0 0 97.017 100" xml:space="preserve" width="45.646974412074" height="47.050976084057375" class="icon-s-0" data-fill-palette-color="quaternary" id="s-0"><path d="M65.979 99.993c17.125 0 31.037-13.883 31.037-31.008 0-4.951 0-18.108 0-20.805 0-2.845-2.18-3.679-4.068-1.597-1.123 1.231-26.41 26.692-39.057 40.485 0-11.103 0-26.342 0-30.11 0-0.748 0.32-1.328 1.217-1.328 12.979 0 24.711-13.978 24.711-27.405 0-9.934-2.094-17.139-6.701-26.355C72.517 0.668 72.431 0 70.747 0c-0.787 0-1.541 0.354-1.906 0.984-1.197 2.08-7.672 13.27-8.086 14.008-0.504 0.902-1.59 0.994-2.096 0-0.383-0.754-6.887-11.928-8.088-14.008C50.206 0.354 49.456 0 48.669 0c-0.786 0-1.538 0.354-1.902 0.984-1.203 2.08-7.705 13.254-8.087 14.008-0.506 0.994-1.591 0.902-2.096 0-0.414-0.739-6.888-11.928-8.087-14.008C28.132 0.354 27.379 0 26.592 0c-1.684 0-1.771 0.668-2.371 1.869-4.61 9.217-6.702 16.421-6.702 26.356 0 13.428 11.732 27.404 24.71 27.404 0.898 0 1.216 0.58 1.216 1.328 0 6.16 0 43.043 0 43.043L65.979 99.993z" fill="#ffffff" data-fill-palette-color="quaternary"></path><path d="M4.093 46.584C2.202 44.501 0 45.336 0 48.18c0 2.696 0.053 15.854 0.053 20.807 0 17.125 13.884 31.008 31.009 31.008 1.855 0 6.256 0 8.363 0V82.591C33.046 76.112 5.417 48.041 4.093 46.584z" fill="#ffffff" data-fill-palette-color="quaternary"></path></svg></g></svg></g></svg></g></svg></g><g></g></svg></g><defs></defs></svg><rect width="395.52" height="148.5564776438068" fill="none" stroke="none" visibility="hidden"></rect></g></svg></g></svg>